<!-- Third SVG Icon -->
<svg width="44" height="46" viewBox="0 0 44 46" fill="none" xmlns="http://www.w3.org/2000/svg">
  <rect x="1" y="1" width="42" height="44" stroke="red" stroke-width="2"/>
  <path d="M1 7 H43" stroke="red" stroke-width="2"/>
  <path d="M5 13 L11 9 L17 13 L23 9 L29 13 L35 9 L41 13" stroke="red" stroke-width="2"/>
  <path d="M5 23 L11 19 L17 23 L23 19 L29 23 L35 19 L41 23" stroke="red" stroke-width="2"/>
  <path d="M5 33 L11 29 L17 33 L23 29 L29 33 L35 29 L41 33" stroke="red" stroke-width="2"/>
  <path d="M5 43 L11 39 L17 43 L23 39 L29 43 L35 39 L41 43" stroke="red" stroke-width="2"/>
</svg>
